<svg width="32" height="32" viewBox="0 0 32 32" fill="none" xmlns="http://www.w3.org/2000/svg">
<rect x="2" y="2" width="28" height="28" rx="9.95626" fill="#202024"/>
<path d="M8.34523 23.5358C7.93905 23.3026 7.61128 23.0077 7.35934 22.6535C7.09069 22.2834 6.8966 21.8761 6.77577 21.4331C6.65495 20.9901 6.59582 20.5558 6.59582 20.1313V18.8171C6.59582 18.1026 6.42229 17.5893 6.07524 17.2783C5.72818 16.9674 5.19989 16.8106 4.48907 16.8106V15.1991C5.19989 15.1991 5.72818 15.0436 6.07524 14.7314C6.42229 14.4204 6.59582 13.9009 6.59582 13.1753V11.8611C6.59582 11.4046 6.66266 10.9332 6.79762 10.447C6.93259 9.9608 7.14468 9.53754 7.43518 9.17722C7.67554 8.86626 7.99175 8.61082 8.38379 8.41215C8.77584 8.21348 9.24243 8.11353 9.78615 8.11353L10.0715 9.37836C9.7296 9.36725 9.46738 9.43636 9.28228 9.58443C9.09719 9.73251 8.9635 9.92748 8.87867 10.1681C8.79512 10.41 8.74627 10.6802 8.73213 10.9776C8.718 11.2762 8.71157 11.5699 8.71157 11.8599V13.1741C8.71157 13.8133 8.54832 14.3809 8.22055 14.8745C7.89278 15.3693 7.38505 15.7445 6.69736 16.0024C7.39147 16.2603 7.90049 16.6342 8.22569 17.1228C8.54961 17.6115 8.71285 18.1754 8.71285 18.8159V20.1301C8.71285 20.42 8.73085 20.715 8.76684 21.0124C8.80283 21.311 8.87224 21.58 8.9725 21.8218C9.07276 22.0637 9.21158 22.2587 9.38768 22.4068C9.56378 22.5548 9.7913 22.6227 10.0715 22.6128L9.78615 23.8863C9.23215 23.8863 8.7527 23.7691 8.34652 23.5358H8.34523Z" fill="#8257E5"/>
<path d="M16.3792 18.5624H14.7583L14.1542 21.867H12.6181L13.2223 18.5624H11.316V17.1766H13.4729L13.892 14.8876H11.9446V13.4858H14.1529L14.766 10.1331H16.2944L15.6812 13.4858H17.3098L17.9229 10.1331H19.459L18.8459 13.4858H20.684V14.8876H18.5849L18.1646 17.1766H20.0451V18.5624H17.9127L17.3085 21.867H15.7725L16.3766 18.5624H16.3792ZM15.0103 17.1766H16.6311L17.0502 14.8876H15.4216L15.0103 17.1766Z" fill="#C6ADFF"/>
<path d="M22.6046 22.4038C22.7807 22.2557 22.9195 22.0607 23.0198 21.8189C23.12 21.577 23.1907 21.3068 23.2293 21.0094C23.2679 20.7108 23.2884 20.4171 23.2884 20.1271V18.8129C23.2884 18.5019 23.3257 18.2058 23.4015 17.9269C23.4774 17.648 23.5931 17.3864 23.7499 17.1458C23.9067 16.9039 24.1034 16.688 24.3412 16.4967C24.579 16.3067 24.863 16.1438 25.1934 16.0093C24.9247 15.9019 24.6869 15.7724 24.48 15.6231C24.273 15.4725 24.0944 15.3059 23.9427 15.1233C23.719 14.8543 23.5532 14.5557 23.4478 14.225C23.3424 13.8942 23.2884 13.5438 23.2884 13.1736V11.8594C23.2884 11.5694 23.282 11.2757 23.2679 10.9771C23.2537 10.6785 23.2049 10.4095 23.1213 10.1676C23.0378 9.92576 22.9028 9.73079 22.7177 9.58394C22.5326 9.4371 22.2704 9.368 21.9285 9.37787L22.2138 8.11304C22.8128 8.11304 23.3167 8.23027 23.7255 8.46349C24.1342 8.69671 24.4671 9.01014 24.7242 9.40255C24.9697 9.7567 25.1458 10.1528 25.2487 10.5909C25.3515 11.0289 25.4042 11.4522 25.4042 11.8606V13.1748C25.4042 13.4759 25.4337 13.7412 25.4929 13.9732C25.552 14.204 25.6433 14.4002 25.7654 14.5618C25.9273 14.7827 26.1561 14.9431 26.4492 15.0456C26.7436 15.148 27.097 15.1986 27.5109 15.1986V16.8102C27.0469 16.8102 26.66 16.8731 26.3528 16.9989C26.0443 17.1248 25.8129 17.3284 25.6561 17.6073C25.5726 17.7578 25.5096 17.9343 25.4672 18.1354C25.4247 18.3366 25.4042 18.5636 25.4042 18.8166V20.1308C25.4042 20.5504 25.3399 20.9847 25.2114 21.4364C25.0828 21.888 24.8926 22.2903 24.6407 22.6457C24.3887 23.0159 24.0597 23.3157 23.6548 23.544C23.2486 23.7723 22.7691 23.887 22.2151 23.887L21.9298 22.6136C22.2036 22.6247 22.4298 22.5556 22.6059 22.4075L22.6046 22.4038Z" fill="#8257E5"/>
</svg>
